<svg viewBox="0 0 689.4 118.576" xmlns="http://www.w3.org/2000/svg" xmlns:xlink="http://www.w3.org/1999/xlink"><linearGradient id="a" gradientUnits="objectBoundingBox" x1="-6.238" x2="-6.236" y1="-34.065" y2="-34.065"><stop offset="0" stop-color="#b1f3ff" stop-opacity=".8"/><stop offset=".57" stop-color="#00c5e3"/><stop offset=".72" stop-color="#00c5e3" stop-opacity=".698"/></linearGradient><linearGradient id="b" gradientUnits="objectBoundingBox" x1="-10.575" x2="-10.575" y1="-63.551" y2="-62.489"><stop offset=".5" stop-color="#9ae1ec"/><stop offset="1" stop-color="#b1f3ff" stop-opacity=".8"/></linearGradient><g opacity=".297" transform="translate(-4.4 -223.024)"><path d="m395 329.3c-45.1-18.1-58-36.9-88.6-41.6-12.2-1.9-31.4-2.1-57 8.9-7.4-8.3-31.9-33.7-70.9-38.3-38.2-4.5-67.3 13.5-77 19.5-28.3 17.5-26.7 31.5-53.2 47.8-13.7 8.4-30 13-43.9 15.6h427a315.668 315.668 0 0 1 -36.4-11.9z" fill="#6bd3e3"/><path d="m659 329.3c-43-17.2-55.3-35.2-84.4-39.6-11.7-1.8-29.9-2-54.3 8.5-7-7.9-30.4-32.1-67.5-36.5-36.4-4.3-64.1 12.9-73.4 18.6-27 16.7-25.4 30-50.6 45.5-13.1 8-28.6 12.4-41.8 14.8h406.8a271.523 271.523 0 0 1 -34.8-11.3z" fill="url(#a)" transform="translate(0 1)"/><path d="m68.4-24.4c-6.1-.7-6.5-5.8-13.9-7.9-5.2-1.5-9.8-.2-13.7 1-9.7 2.9-11.8 8-20.4 12.6a46.018 46.018 0 0 1 -20.4 5l126.1-.6a81.423 81.423 0 0 1 -10.9-3.5c-6-2.4-7.6-3.9-11.6-4-4.8-.2-5.1 1.8-9 1.4-6.6-.5-7.3-6.3-13.6-7.1-5.8-.8-6.8 3.7-12.6 3.1z" fill="#b1f3ff" opacity=".277" transform="translate(45 266.176)"/><path d="m3.7 8.6c-6.1-.7-6.5-5.8-13.9-7.9-5.2-1.5-9.8-.2-13.7 1-9.7 2.9-11.8 8-20.4 12.6a45.344 45.344 0 0 1 -20.3 5.1l126.1-.6a81.422 81.422 0 0 1 -10.9-3.5c-6-2.4-7.6-3.9-11.6-4-4.8-.2-5.1 1.8-9 1.4-6.6-.5-7.3-6.3-13.6-7.1-5.9-.9-6.9 3.6-12.7 3z" fill="#b1f3ff" opacity=".73" transform="translate(424.925 223)"/><path d="m632.853 347.751c-21.958-8.816-28.244-17.959-43.1-20.244-5.959-.9-15.265-1.061-27.754 4.326-3.592-4.081-15.51-16.408-34.448-18.612-18.53-2.2-32.734 6.612-37.468 9.469-13.8 8.571-12.979 15.346-25.877 23.265-6.694 4.082-14.612 6.367-21.305 7.592h207.666a149.678 149.678 0 0 1 -17.714-5.8z" fill="url(#b)" transform="translate(37 -89.846)"/></g></svg>