<svg height="39.995" viewBox="0 0 34.123 39.995" width="34.123" xmlns="http://www.w3.org/2000/svg" xmlns:xlink="http://www.w3.org/1999/xlink"><clipPath id="a"><path d="m0 0h34.122v39.995h-34.122z"/></clipPath><g clip-path="url(#a)"><path d="m958.934 263.726 2.72-2.026a.663.663 0 0 1 .791 0l13.028 9.7a1.322 1.322 0 0 1 .533 1.062v25.148a1.323 1.323 0 0 1 -1.323 1.324h-2.665v-24.07a1.323 1.323 0 0 0 -.495-1.033l-12.589-10.1zm0 0" fill="#87aaf1" transform="translate(-941.909 -261.528)"/></g><path d="m721.51 309.318a1.324 1.324 0 0 0 -.51 1.044v24.581a1.324 1.324 0 0 0 1.324 1.324h25.151a1.324 1.324 0 0 0 1.324-1.324v-24.58a1.324 1.324 0 0 0 -.51-1.045l-12.982-10.118a.663.663 0 0 0 -.814 0zm0 0" fill="#014ae3" transform="translate(-721 -296.341)"/><path d="m741.422 335.015a1.214 1.214 0 0 0 -.457.951v22.4a1.2 1.2 0 0 0 1.188 1.207h22.566a1.178 1.178 0 0 0 .84-.354 1.216 1.216 0 0 0 .348-.853v-22.4a1.214 1.214 0 0 0 -.457-.953l-11.65-9.213a.587.587 0 0 0 -.73 0zm0 0" fill="#fff" transform="translate(-739.536 -321.043)"/><path d="m830.6 400.952v1.324h3.971a1.324 1.324 0 0 1 0 2.647h-3.971v2.647a1.324 1.324 0 1 1 -2.647 0v-2.647h-3.971a1.324 1.324 0 1 1 0-2.647h3.971v-1.324h-3.971a1.324 1.324 0 1 1 0-2.647h2.763l-2.262-2.262a1.324 1.324 0 1 1 1.872-1.872l2.922 2.921 2.921-2.921a1.324 1.324 0 1 1 1.872 1.872l-2.262 2.262h2.764a1.324 1.324 0 1 1 0 2.647zm-1.324-12.712a1.986 1.986 0 1 1 1.719-.993 1.986 1.986 0 0 1 -1.719.993zm0 0" fill="#014ae3" transform="translate(-815.378 -375.448)"/></svg>