<svg viewBox="0 0 141.051 49.379" xmlns="http://www.w3.org/2000/svg"><g fill="#fff"><path d="m227.879 27.9h-1.073v1.5h-3.006v4.3h1.073v-.644h1.932v2.576h1.073v-2.579h1.932v.647h1.073v-4.3h-3.006zm-1.073 4.294h-1.932v-1.932h1.932zm3.006-1.932v1.932h-1.932v-1.932z" transform="translate(-213.066 4.518)"/><path d="m232.579 31.82a2.964 2.964 0 0 1 -.644-.859l-.644.215c.429.429.644.644.644.859h-1.073v-1.073h1.5v-.862h-1.5v-.644h1.718v-.856h-4.08v.859h1.5v.859h-1.288v.859h1.288v1.073h-1.5v.859h4.294v-.859h-.644z" transform="translate(-207.675 5.321)"/><path d="m228.015 35.514h.859v-.429h4.938v.429h.859v-7.514h-6.871v7.514zm.859-6.655h4.938v5.367h-4.938z" transform="translate(-208.478 4.633)"/><path d="m236.853 28.873a3.769 3.769 0 0 0 -.859-1.073l-1.073.429.859.859h-3.006v2.147a6.375 6.375 0 0 1 -1.074 3.865 1.627 1.627 0 0 1 .859.429 6.755 6.755 0 0 0 1.073-4.294v-1.288h5.582v-.859h-3.006z" transform="translate(-204.005 4.403)"/><path d="m243.329 30.806v-.644h-1.288l.859-.859-.644-.429c-.215.215-.429.644-.859.859.215 0 .429.215.644.429h-.859v-1.289c.644 0 1.288-.215 1.932-.215l-.429-.644a24.654 24.654 0 0 1 -4.079.215c.215.215.215.429.429.644h1.718v1.073h-.859l.644-.429-.644-.644-.644.215c.215.215.429.644.644.859h-1.288v.644h1.288a4.491 4.491 0 0 1 -1.288.859l-.429-.644-.429.215v-.644h.644v-.859h-.644v-1.718h-.859v1.718h-.859v.859h.859v1.5l-1.288.644.429.644.644-.429v1.718a.462.462 0 0 1 -.429.429h-.645a1.291 1.291 0 0 1 .215.859h.644a1.014 1.014 0 0 0 1.073-1.073v-2.361l.429-.215c.215.215.429.429.429.644h.215v3.22h.859v-.429h2.576v.429h.859v-3.434a.21.21 0 0 1 .215.215c0-.215.215-.429.429-.644a4.151 4.151 0 0 1 -1.932-1.073h1.718zm-2.791 3.864h-.859v-.644h.859zm0-1.073h-.859v-.644h.859zm1.718 1.073h-.856v-.644h.859zm0-1.073h-.856v-.644h.859zm.215-1.288h-3.22a5.693 5.693 0 0 0 1.288-1.073v.859h.859v-.645c.213.214.643.429 1.072.858z" transform="translate(-199.532 4.403)"/><path d="m242.544 30.591a11.254 11.254 0 0 0 2.362-2.147l-.644-.644a5.249 5.249 0 0 1 -2.362 1.932c0 .43.429.644.644.859z" transform="translate(-192.307 4.403)"/><path d="m241.8 31.032.644.644a22.812 22.812 0 0 0 2.362-1.932l-.644-.644a11.39 11.39 0 0 1 -2.362 1.932z" transform="translate(-192.421 5.894)"/><path d="m244.523 30.791h-2.147a.21.21 0 0 0 -.215-.215h1.718v-2.576h-3.65v2.362h1.288l.215.215h-1.932v.644h4.938v-.429zm-3.435-2.147h2.147v.429h-2.147zm0 1.288v-.432h2.147v.429z" transform="translate(-194.715 4.633)"/><path d="m244.108 29.8h-3.65v1.718h1.5v.859c0 .215 0 .429-.215.429h-.429c0-.215.215-.215.215-.429l-.859-.429a5.693 5.693 0 0 1 -1.073 1.288 1.115 1.115 0 0 1 .859.429 2.964 2.964 0 0 0 .644-.859.789.789 0 0 0 .215.644h.644c.644 0 1.073-.429.859-1.073v-1.077h1.288v-1.5zm-.859 1.073h-2.149v-.429h2.147z" transform="translate(-194.945 6.697)"/><path d="m242.7 32.132-.644-.644-.859.429c.215.215.429.644.644.859l.429-.215.644.644a7.476 7.476 0 0 0 2.791-2.362l-.644-.644a6.711 6.711 0 0 1 -2.361 1.933z" transform="translate(-193.11 7.156)"/><path d="m249.738 32.564a.789.789 0 0 1 -.215.644.462.462 0 0 1 -.429.429h-.215a.462.462 0 0 1 -.429-.429v-1.717h-.429c0-.429.215-.859.215-1.5v-1.291h-.859v1.288a4.416 4.416 0 0 1 -2.576 4.079c.215.215.644.429.859.644a5.147 5.147 0 0 0 2.147-2.147v.859c0 .859.429 1.073 1.073 1.073h.644c.644 0 .859-.215 1.073-.859a.789.789 0 0 1 .215-.644 1.262 1.262 0 0 1 -1.074-.429z" transform="translate(-188.981 5.436)"/><path d="m246.159 28.959h2.147v3.864h.859v-4.723h-3.865v4.723h.859z" transform="translate(-188.407 4.747)"/><path d="m247.15 31.706a2.143 2.143 0 0 0 -.859-1.073l-.429.215v-.215l.644-1.288v-.645h-2.576v.644h1.5a6.711 6.711 0 0 1 -1.932 2.362c.215.215.429.215.644.644l.644-.644v3.006h.859v-3.436a2.964 2.964 0 0 0 .644.859z" transform="translate(-190.472 5.436)"/><path d="m245.932 28.973a4.683 4.683 0 0 0 -.859-1.073l-1.073.215c.429.429.644.859 1.073 1.288z" transform="translate(-189.898 4.518)"/><path d="m254.141 33.6a7.318 7.318 0 0 0 .859-3.438h.644v-.862h-2.144a2.723 2.723 0 0 0 .215-1.288l-.859-.215a11.316 11.316 0 0 1 -1.073 3.22c-.215-.215-.644-.429-.859-.644l-.429.429v-.429h1.5v-.644h-.859c.429-.215.644-.644.859-.859l-.644-.429-.859.859c.215.215.429.215.644.429h-.644v-1.714h-.859v1.718h-.644l.429-.644-.859-.859-.644.429c.215.215.644.429.859.859h-.859v.859h1.285a9.338 9.338 0 0 1 -1.5 1.288 1.628 1.628 0 0 1 .859.429c.429-.429.859-.644 1.288-1.073v.644h.859v-.645a3.769 3.769 0 0 1 1.073.859v-.215c.215.215.429.215.644.429a.75.75 0 0 0 .215-.429 14.794 14.794 0 0 0 .644 1.718 2.886 2.886 0 0 1 -1.5 1.288v-.429l-.644-.215c.215-.429.644-.644.644-1.288v-.215h-1.718c0-.215.215-.215.215-.429l-.859-.215c0 .215-.215.429-.215.644h-1.288v.644h.859c-.215.215-.429.644-.644.859.429.215.859.215 1.288.429a3.326 3.326 0 0 1 -1.718.429l.644.644a6.43 6.43 0 0 0 2.147-.859c.429.215.644.429 1.073.429v-.215c.215.215.429.429.644.429a9.336 9.336 0 0 0 1.5-1.288 9.336 9.336 0 0 0 1.5 1.288l.644-.644a1.912 1.912 0 0 1 -1.713-1.068zm-3.864.429a1.291 1.291 0 0 0 -.859-.215c.215-.215.215-.429.429-.429h1.073zm3.22-1.288-.644-1.932c0-.215.215-.429.215-.644h.859a4.648 4.648 0 0 1 -.427 2.573z" transform="translate(-185.655 4.403)"/><path d="m252.873 29.618h5.152v1.288h.859v-2.147h-2.791a2.963 2.963 0 0 0 -.644-.859l-1.073.215c.215.215.215.429.429.859h-3.005v2.146h.859v-1.5z" transform="translate(-180.952 4.518)"/><path d="m256.194 30.818c.644-.429 1.073-.859 1.5-1.073v-.645h-4.294v.859h3.006c-.429.215-.644.429-1.073.644v.429h-3.433v.859h3.435v.859c0 .429-.215.429-.429.429h-.859a1.291 1.291 0 0 1 .215.859h.859a1.139 1.139 0 0 0 1.288-1.288v-1.074h3.22v-.644h-3.22v-.215z" transform="translate(-180.838 5.894)"/><path d="m263.329 31.12v-.644h-2.791v-1.288a12.67 12.67 0 0 0 3.006-.429l-.644-.859a14.94 14.94 0 0 1 -3.435.429v2.576a5.076 5.076 0 0 1 -.859 3.435v-2.576h-1.5v-.859h1.932v-.644h-.429v-2.361h-.859v2.362h-.65v-1.933h-.859v3.864a4.186 4.186 0 0 1 -.215 1.718 5.462 5.462 0 0 1 -.429 1.5 1.628 1.628 0 0 1 .859.429 6.234 6.234 0 0 0 .644-3.006h.644v2.791h.859v-.425a.462.462 0 0 1 .429.429 6.122 6.122 0 0 0 1.073-4.079 7.692 7.692 0 0 0 .859 2.362 5.167 5.167 0 0 1 -1.714 1.288l.644.644a9.34 9.34 0 0 0 1.5-1.288 3.851 3.851 0 0 0 1.5 1.073l.644-.644a5.166 5.166 0 0 1 -1.717-1.288 3.982 3.982 0 0 0 1.508-2.577zm-1.5 1.932a4.1 4.1 0 0 1 -.644-1.718h1.288a14.791 14.791 0 0 0 -.647 1.719z" transform="translate(-176.594 4.518)"/><path d="m264.22 32.923a10.261 10.261 0 0 0 1.288-3.864v-.859h-3.864v.859h3.006a12.308 12.308 0 0 1 -.859 3.006 10.786 10.786 0 0 1 -1.073-2.791l-.859.215a7.27 7.27 0 0 0 1.288 3.22 8.406 8.406 0 0 1 -2.147 1.717 2.963 2.963 0 0 1 .859.644 7.545 7.545 0 0 0 1.932-1.5 4.675 4.675 0 0 0 1.932 1.5c.215-.215.429-.644.859-.644a6.394 6.394 0 0 1 -2.362-1.503z" transform="translate(-170.401 4.862)"/><path d="m263.464 32.523c-.215-.429-.644-.859-.859-1.288l-.429.215v-1.074h.859v-.859h-.859v-1.717h-.859v1.718h-1.288v.859h1.071a13.115 13.115 0 0 1 -1.5 3.006c.215.215.429.215.644.429a4.315 4.315 0 0 0 .859-1.718v3.65h.859v-3.865c.215.429.429.644.644 1.073z" transform="translate(-172.007 4.403)"/><path d="m268.108 29.618-.859.215c0 .215.215.215.215.429h-2.791a2.143 2.143 0 0 0 .859-1.073h2.147v-.644h-1.932c0-.215.215-.215.215-.429l-.862-.216a4.328 4.328 0 0 1 -1.5 1.932 1.627 1.627 0 0 1 .859.429h-.429v1.5h.859v-.859h5.153v.859h.859v-1.5h-3.006c.428-.429.213-.429.213-.643z" transform="translate(-167.419 4.518)"/><path d="m265.244 29.473.644-.429-.644-.644-.644.215a2.964 2.964 0 0 0 .644.858z" transform="translate(-166.272 5.092)"/><path d="m265.359 31.218h4.079v-1.718h-4.938v4.508h.859v-.429h3.435v.215h.859v-2.147h-4.294zm0-1.288h3.006v.644h-3.006zm3.435 2.362v.429h-3.435v-.644h3.435z" transform="translate(-166.387 6.353)"/><path d="m267.332 28.015-.859-.215a4.674 4.674 0 0 1 -1.073 1.718c.215 0 .644.215.859.215.215-.215.429-.429.429-.644h.859l-.644.215.644.644.644-.429-.644-.644h1.717v-.644h-2.364c.432.213.432-.002.432-.216z" transform="translate(-165.355 4.403)"/><path d="m272.006 33.582h1.717v-.859h-1.717v-.644h1.717v-4.079h-4.294v3.864h1.717v.644h-1.717v.859h1.717v1.073h-2.146v.86h5.153v-.859h-2.147zm0-4.723h.859v.859h-.859zm-.859 2.362h-.859v-.859h.859zm0-1.5h-.859v-.859h.859zm.859.644h.859v.859h-.859z" transform="translate(-161.226 4.633)"/><path d="m270.491 32.923-.859.215v-1.718h.859v-.859h-.859v-1.717h1.073v-.644h-2.791v.644h.859v1.718h-.859v.859h.859v1.932l-1.073.429.429.644 2.576-.859z" transform="translate(-162.717 4.862)"/><path d="m273.732 32.535v-3.435h-1.932v.859h1.073v2.576c0 .429 0 .644-.215.859l.644.644c.215-.215.215-.429.429-.429l1.5-1.288-.429-.644z" transform="translate(-158.015 5.894)"/><path d="m276.02 28.329a.21.21 0 0 1 .215-.215l-.859-.215a6.207 6.207 0 0 1 -2.576 3.22 2.964 2.964 0 0 1 .859.644c.215-.215.429-.215.644-.429v3.006a1.139 1.139 0 0 0 1.288 1.288h1.288a1.177 1.177 0 0 0 1.288-.859c0-.215.215-.429.215-.644a1.628 1.628 0 0 1 -.859-.429c0 .215-.215.644-.215.859 0 .429-.429.429-.644.429h-.859c-.429 0-.644-.215-.644-.429v-.855l2.576-1.288-.644-.644a4.151 4.151 0 0 1 -1.932 1.073v-1.291h-.861a5.788 5.788 0 0 0 1.5-1.718 8.239 8.239 0 0 0 2.362 2.362q.322-.644.644-.644a17.37 17.37 0 0 1 -2.786-3.221z" transform="translate(-156.868 4.518)"/><path d="m273.188 29.832.644-.644c-.429-.429-.644-.859-1.073-1.288l-.859.429a9.336 9.336 0 0 0 1.288 1.503z" transform="translate(-157.9 4.518)"/><path d="m125.808 32.847h3.864v.859h-3.864z"/><path d="m278.706 32.838-.859.215v-2.362h.859v-.859h-.859v-1.932h-.859v1.932h-1.073v.859h1.073v2.791l-1.288.644.429.644 3.006-1.288z" transform="translate(-153.542 4.518)"/><path d="m279.662 31.232a4.492 4.492 0 0 0 .859 1.288l-1.932.215 1.288-2.576h2.147v-.859h-4.724v.859h1.717a9.893 9.893 0 0 1 -1.073 2.147l-.644.644.429.859c.215 0 .429-.215.859-.215l2.791-.215a.789.789 0 0 1 .215.644l.644-.429a8.864 8.864 0 0 0 -1.5-2.362z" transform="translate(-151.707 6.124)"/><path d="m248.729 21.773a1.073 1.073 0 0 0 0 1.718 1.64 1.64 0 0 0 1.073.429 3.051 3.051 0 0 0 1.288-.429 1.676 1.676 0 0 0 .859-.859 2.723 2.723 0 0 0 .215-1.288v-.644l-1.932.644a2.053 2.053 0 0 0 -1.503.429z" transform="translate(-184.967 -3.74)"/><path d="m218.8 12.8v49.379h141.051v-49.379zm77.288 8.373a1.877 1.877 0 0 1 1.073-1.932 1.936 1.936 0 0 1 1.073-.215h54.531a2.438 2.438 0 0 1 1.718.644 1.115 1.115 0 0 1 .429.859v15.671a1.824 1.824 0 0 1 -1.5 1.5h-54.962a2.059 2.059 0 0 1 -2.362-2.362c0-4.504-.215-9.227 0-14.165zm-10.305 4.938a1.609 1.609 0 0 0 -1.073-.215 2.5 2.5 0 0 0 -1.5.429 2.3 2.3 0 0 0 -.644 1.073l-4.079-.429a14.8 14.8 0 0 1 .644-1.718 2.2 2.2 0 0 1 1.288-1.073 3.326 3.326 0 0 1 1.718-.429 8.05 8.05 0 0 1 2.362-.215 14.216 14.216 0 0 1 3.22.215 4.045 4.045 0 0 1 1.932.859c.429.215.644.859.859 1.288a4.726 4.726 0 0 1 .215 1.718v6.226a3.629 3.629 0 0 0 .429 1.073h-4.079a.789.789 0 0 1 -.215-.644.789.789 0 0 0 -.215-.644 3.8 3.8 0 0 1 -1.718 1.073 10.877 10.877 0 0 1 -2.791.429 4.2 4.2 0 0 1 -3.006-.859 3.448 3.448 0 0 1 -1.073-2.362 2.756 2.756 0 0 1 .859-2.147 4.257 4.257 0 0 1 2.791-1.288 19.363 19.363 0 0 1 3.22-.644c.429-.215 1.073-.215 1.5-.429-.427-.643-.427-1.073-.644-1.287zm-22.113-2.577h4.079v1.932a6.956 6.956 0 0 1 1.932-1.718 3.9 3.9 0 0 1 2.362-.429 3.709 3.709 0 0 1 2.791 1.073 5.042 5.042 0 0 1 1.073 3.435v7.3h-4.294v-6.227a2.5 2.5 0 0 0 -.429-1.5 1.64 1.64 0 0 0 -1.073-.429 1.856 1.856 0 0 0 -1.288.644c-.429.429-.429 1.073-.429 2.147v5.367h-4.294v-11.595zm-7.085-4.294h4.294v3.006h-4.294zm0 4.294h4.294v11.379h-4.294zm-14.814-4.294h4.294v5.8a7.037 7.037 0 0 1 1.718-1.288 6.352 6.352 0 0 1 2.147-.429 3.709 3.709 0 0 1 2.791 1.073 4.832 4.832 0 0 1 1.073 3.22v7.3h-4.294v-6.229a2.5 2.5 0 0 0 -.429-1.5 1.64 1.64 0 0 0 -1.071-.432 1.856 1.856 0 0 0 -1.288.644c-.429.429-.429 1.073-.429 2.147v5.367h-4.294v-15.672zm-15.458 1.718c1.288-1.5 3.435-2.147 5.8-2.147a8.164 8.164 0 0 1 4.723 1.288 7.978 7.978 0 0 1 2.576 3.65l-4.294.859c-.215-.429-.215-.859-.429-1.073a2.143 2.143 0 0 0 -1.073-.859 2.723 2.723 0 0 0 -1.288-.215 3.06 3.06 0 0 0 -2.576 1.288 5.686 5.686 0 0 0 -.644 3.006c0 1.718.215 3.006.859 3.65a2.642 2.642 0 0 0 2.147 1.073 2.489 2.489 0 0 0 2.147-.859 4.846 4.846 0 0 0 1.073-2.362l4.294 1.288a6.411 6.411 0 0 1 -1.288 3.006 3.82 3.82 0 0 1 -2.362 1.718 8.175 8.175 0 0 1 -3.435.644 10.821 10.821 0 0 1 -4.079-.644 6.3 6.3 0 0 1 -2.791-2.576 8.128 8.128 0 0 1 -1.073-4.723 7.777 7.777 0 0 1 1.714-6.012zm128.387 33.277a1.824 1.824 0 0 1 -1.5 1.5h-127.1a1.78 1.78 0 0 1 -1.718-.644 1.628 1.628 0 0 1 -.429-.859v-10.302a1.824 1.824 0 0 1 1.5-1.5h127.1c.644 0 1.5 0 1.932.644a1.628 1.628 0 0 1 .429.859c-.214 3.432-.214 6.867-.214 10.302z" transform="translate(-218.8 -12.8)"/><path d="m266.773 29.667a2.95 2.95 0 0 0 1.717-1.073 3.127 3.127 0 0 0 1.288-1.932 12.992 12.992 0 0 0 .429-3.22 10.454 10.454 0 0 0 -.215-2.576 6.716 6.716 0 0 0 -1.073-2.147 3.339 3.339 0 0 0 -1.717-1.288 9.528 9.528 0 0 0 -2.791-.431h-6.011v12.881h6.011a4.64 4.64 0 0 0 2.362-.214zm-4.294-2.576v-7.085h1.073a2.261 2.261 0 0 1 2.147.859 4.427 4.427 0 0 1 .644 2.791 5.386 5.386 0 0 1 -.215 2.147 2.144 2.144 0 0 1 -.859 1.073 3.691 3.691 0 0 1 -1.717.215z" transform="translate(-173.383 -7.983)"/><path d="m269.079 24.614h.429a1.935 1.935 0 0 1 1.073.215 2.3 2.3 0 0 1 .644 1.073l2.147 3.864h4.509l-1.932-3.65c0-.215-.215-.429-.644-.859q-.322-.644-.644-.644c-.215-.215-.644-.215-1.073-.429a13.684 13.684 0 0 0 1.5-.429 7.286 7.286 0 0 0 1.288-1.288 4.287 4.287 0 0 0 .429-1.932 3.627 3.627 0 0 0 -.644-2.147c-.429-.644-.859-1.073-1.5-1.073a9.688 9.688 0 0 0 -2.791-.215h-6.87v12.881h4.079zm0-4.938h1.721a2.5 2.5 0 0 1 1.5.429 1.628 1.628 0 0 1 .429.859 1.623 1.623 0 0 1 -.215.859c-.215.215-.429.429-.644.429a2.334 2.334 0 0 1 -1.073.215h-1.717v-2.791z" transform="translate(-165.813 -7.868)"/><path d="m274.72 20.106 2.576 9.876h3.004l2.576-9.876v9.876h3.22v-12.882h-5.367l-1.929 7.729-2.148-7.729h-5.152v12.881h3.22z" transform="translate(-158.359 -7.868)"/></g></svg>