<svg height="37.995" viewBox="0 0 38.013 37.995" width="38.013" xmlns="http://www.w3.org/2000/svg"><g fill="#014ae3" transform="translate(-607 -188)"><path d="m938.251 514.892h-.051v-.092l.052.086v-.021l.052.086h-.052zm2.267-.091v.091h-.052v.06h-.052l.052-.086v.021zm0 0" transform="translate(-313.352 -309.191)"/><path d="m624.9 205.674v.086h.052zm2.164.086h.052v-.086zm0 0h.052v-.086zm-2.164-.086v.086h.052zm0 0v.086h.052zm2.164.086h.052v-.086zm0 0h.052v-.086zm-2.164-.086v.086h.052zm0 0v.086h.052zm2.164.086h.052v-.086zm0 0h.052v-.086zm-2.164 0h.052l-.052-.086zm1.106-17.76a19 19 0 1 0 19.006 19.006 19.009 19.009 0 0 0 -19.006-19.006zm5.8 17.761h-4.69v2.811h4.69v2.216h-4.69v5.268h-2.216v-5.272h-4.694v-2.216h4.69v-2.806h.052l-.052-.086v.082h-4.69v-2.233h3.461l-2.9-5.022 1.931-1.108 3.3 5.733 3.3-5.725 1.931 1.108-2.9 5.022h3.471zm-4.69-.086-.052.086h.052zm-2.216 0v.086h.052zm2.164.086h.052v-.086zm0 0h.052v-.086zm-2.164-.086v.086h.052zm0 0v.086h.052zm2.164.086h.052v-.086zm0 0h.052v-.086zm-2.164-.086v.086h.052zm0 0v.086h.052zm2.164.086h.052v-.086zm0 0h.052v-.086zm-2.164-.086v.086h.052zm0 0"/><g transform="translate(-313.352 -309.191)"><path d="m938.255 514.892h-.055v-.092l.052.086zm2.263-.091v.091h-.056zm0 0"/><path d="m938.255 514.892h-.055v-.092l.052.086zm2.263-.091v.091h-.056zm0 0"/></g></g></svg>