<svg viewBox="0 0 101.936 73.68" xmlns="http://www.w3.org/2000/svg"><g fill="#fff"><path d="m225.7 47.584a15.878 15.878 0 0 0 -1.718-6.226 13.387 13.387 0 0 0 -6.87-6.441c-.644-.215-1.5-.429-1.5-1.5a3.052 3.052 0 0 0 -.429-1.288 23.643 23.643 0 0 0 -4.294-6.655c-3.22-3.65-7.514-4.938-12.237-4.508-.429 0-1.073.215-1.5.215a5.46 5.46 0 0 1 -.429-1.5 15.667 15.667 0 0 0 -3.435-6.441 14.9 14.9 0 0 0 -7.3-4.723 22.741 22.741 0 0 0 -8.373-1.288 12.157 12.157 0 0 0 -3.864.644 30.4 30.4 0 0 0 -4.723 1.5 20.94 20.94 0 0 0 -8.158 6.87c-.429.429-.644 1.073-1.073 1.288-2.147 1.5-3.435 3.435-4.938 5.367a1.115 1.115 0 0 1 -.859.429c-1.5.215-3.006 0-4.294.429a15.617 15.617 0 0 0 -4.508 1.288 13.487 13.487 0 0 0 -7.3 8.373 56.122 56.122 0 0 0 -1.288 5.8c-.859.215-1.932.429-3.006.644a11.654 11.654 0 0 0 -6.011 4.079 14.192 14.192 0 0 0 -2.793 5.36 12.538 12.538 0 0 0 -.859 3.864 17.681 17.681 0 0 0 .859 7.514 13.333 13.333 0 0 0 5.153 7.085 15.436 15.436 0 0 0 6.011 2.791 1.609 1.609 0 0 0 1.073-.215c.215-.215.644-.859.429-1.073a2.587 2.587 0 0 0 -1.073-1.073c-.859-.429-1.932-.429-2.791-.859a12 12 0 0 1 -6.655-8.373 29.364 29.364 0 0 1 -.429-6.226 5.127 5.127 0 0 1 .429-1.932 12.412 12.412 0 0 1 3.864-4.938 19.579 19.579 0 0 1 8.588-3.006c1.073-.215 1.073 0 1.288-1.288 0-.859.215-1.5.215-2.362a16.878 16.878 0 0 1 1.718-5.582 11.266 11.266 0 0 1 9.88-6.227h3a2.162 2.162 0 0 0 .644-.215 17.713 17.713 0 0 1 6.441-7.3 13.767 13.767 0 0 1 7.514-2.576c1.932 0 3.65.215 5.582.215a12.307 12.307 0 0 1 3.006.859 15.314 15.314 0 0 1 6.655 5.582 16.474 16.474 0 0 1 2.576 6.011c.215.644.429.859 1.288.644.215 0 .644-.215.859-.215 1.5 0 2.791-.429 4.294 0a17.886 17.886 0 0 1 3.22.859 12.5 12.5 0 0 1 5.582 4.938 12.94 12.94 0 0 1 1.932 4.723c.215.644.215 1.5 1.073 1.718a23.8 23.8 0 0 1 6.441 3.65 11.444 11.444 0 0 1 3.864 9.232 33.337 33.337 0 0 1 -.859 4.508 11.131 11.131 0 0 1 -5.582 6.87c-.644.429-1.5.215-1.5 1.288a11.078 11.078 0 0 1 -.429 2.362 9.448 9.448 0 0 1 2.147-.429 6.678 6.678 0 0 0 3.65-1.932l3.22-3.864a27.647 27.647 0 0 1 3.65-3.435 14.646 14.646 0 0 0 4.932-11.162 7.041 7.041 0 0 0 0-2.147zm-2.147 3.65a15.391 15.391 0 0 1 -3.864 9.232v-1.289a15.172 15.172 0 0 0 .429-5.367c-.215-1.073-.215-1.932-.429-3.006a10.645 10.645 0 0 0 -1.718-4.294 17.513 17.513 0 0 0 -5.367-5.153 5.381 5.381 0 0 1 -1.5-.859 2.143 2.143 0 0 1 -.859-1.073c-1.073-3.435-2.576-6.655-5.582-9.017a11.36 11.36 0 0 0 -4.508-2.362 18.345 18.345 0 0 0 -6.87-.859c-.644 0-1.288.215-1.932.215a28.672 28.672 0 0 0 -1.5-3.864 15.48 15.48 0 0 0 -7.514-7.729 14.612 14.612 0 0 0 -6.655-1.718c-1.5 0-2.791-.429-4.294-.215-2.147.215-4.294.644-6.226.859-.215 0-.215 0-.429-.215.859-.429 1.5-1.073 2.362-1.5a54.9 54.9 0 0 1 5.153-2.362 39.625 39.625 0 0 1 4.938-.859 16.3 16.3 0 0 1 11.164 3.65 15.094 15.094 0 0 1 4.938 6.655 25.1 25.1 0 0 1 1.288 4.294 10.776 10.776 0 0 1 2.576-.429h3.22a7.628 7.628 0 0 1 2.147.429 10.641 10.641 0 0 1 6.87 4.723c1.073 1.718 1.932 3.65 2.791 5.367v.429a1.426 1.426 0 0 0 .859 1.073c4.079 1.5 7.3 3.864 9.017 7.944 1.07 2.791 1.714 4.938 1.499 7.3z" transform="translate(-123.864 -7.181)"/><path d="m162.231 20.281 1.932-1.288a7.185 7.185 0 0 0 -3.65-2.147l-2.576-.644c-.859 0-1.932-.429-2.576 0a79.689 79.689 0 0 0 -6.87 4.938 38.626 38.626 0 0 0 -8.8 10.734 6.74 6.74 0 0 0 -1.288 3.435 12.24 12.24 0 0 0 .215 2.791 4.328 4.328 0 0 0 1.932 3.22 11.873 11.873 0 0 0 6.441 1.932 18.468 18.468 0 0 0 3.435-.215 25.113 25.113 0 0 0 4.294-1.073c2.147-.859 4.294-2.147 6.655-3.22.215 0 .644 0 .644.215.859 1.932 1.718 3.864 2.362 5.8a.9.9 0 0 0 1.288.644.749.749 0 0 0 .429-.215q3.22-1.61 2.576-4.508a36.991 36.991 0 0 0 -1.5-4.508c-.215-.644-.215-.859.215-1.288 2.362-1.718 4.508-3.435 6.87-5.153a1.852 1.852 0 0 0 .859-2.147c-3.006 1.718-6.226 3.22-9.232 4.938a10.47 10.47 0 0 0 -.644-1.5c-1.288-2.576-2.576-4.938-3.864-7.514a2.985 2.985 0 0 1 .853-3.227zm-2.362 15.243c-2.147 1.073-4.508 2.147-6.655 3.006a18.182 18.182 0 0 1 -3.65.859c-1.5.215-3.006.215-4.294.429a2.18 2.18 0 0 1 -2.147-1.073 1.96 1.96 0 0 1 .429-2.362 28.025 28.025 0 0 1 8.158-7.729c1.073-.859 2.362-1.718 3.65-2.791.859 1.5 1.718 2.791 2.362 4.079l2.576 5.153c-.214-.215-.214.429-.429.429z" transform="translate(-107.193 2.947)"/><path d="m145.585 41.461h1.932c.215 0 .429-.429.429-.429-.644-1.073-1.288-2.147-1.932-3.435 1.288-.859 2.362-1.932 1.932-3.864-.215-1.073-.859-1.932-1.932-1.932h-7.514v9.232c0 .215.429.429.644.429h.856c.644 0 1.073-.215 1.073-1.073v-7.3h4.508v2.361h-2.362v.215c.644 1.718 1.5 3.22 2.147 4.723-.211.858.004 1.073.219 1.073z" transform="translate(-107.078 21.055)"/><path d="m153.188 41.246c.644 0 .859-.429.859-1.073v-8.158h-2.577v6.87c0 .644-.215 1.073-.859.859h-2.576c-.644 0-.859-.215-.859-1.073v-6.871h-2.576v7.514c0 1.5.644 1.932 1.718 1.932a36.7 36.7 0 0 0 6.87 0z" transform="translate(-100.082 21.055)"/><path d="m164.219 35.335h-4.079c-.644 0-1.073-.215-.859-.859 0-.644 0-1.288.859-1.288h4.723a1.075 1.075 0 0 0 1.073-1.288h-8.158c-.215 0-.859.429-.859.644a13.2 13.2 0 0 0 -.215 3.006c0 .429.215 1.288.859 1.5.215 0 .644.215.859.215h4.938v2.791h-5.153a2.449 2.449 0 0 0 -1.288.644c-.429.429-.215.859.429.859h7.3a1.356 1.356 0 0 0 1.5-1.5v-2.577c.218-1.503-.641-2.147-1.929-2.147z" transform="translate(-86.209 21.17)"/><path d="m159.6 41.017a1.291 1.291 0 0 0 -.215-.859 1.64 1.64 0 0 0 -1.073-.429h-4.508c-.644 0-1.073-.215-.859-.859v-4.508c0-.859.429-1.073 1.073-1.073h4.294c1.073 0 1.5-.215 1.718-1.288h-7.944c-1.073 0-1.288.215-1.288 1.288v6.441a1.58 1.58 0 0 0 1.718 1.718h6.87c-.213-.216.214-.216.214-.431z" transform="translate(-92.971 21.285)"/><path d="m134.547 33.518c.644 0 1.073.215 1.073.859v5.367c0 1.932 0 1.718 1.932 1.932.644 0 .859-.215.859-.859v-5.367c0-1.932 0-1.932 1.932-1.932a1.693 1.693 0 0 0 1.717-1.718h-9.232a.462.462 0 0 0 -.429.429v1.071a6.619 6.619 0 0 0 2.148.218z" transform="translate(-114.074 21.055)"/><path d="m136.55 38.8h-3.65v3.435h3.65zm-1.073 2.576h-1.5v-1.717h1.5z" transform="translate(-113.501 29.083)"/><path d="m132.5 38.973h5.582v4.938a.569.569 0 0 1 -.644.644h-1.073a1.609 1.609 0 0 1 .215 1.073h1.073c1.073 0 1.5-.429 1.5-1.5v-5.155h1.288v-1.073h-7.941z" transform="translate(-113.959 28.051)"/><path d="m30.134 67.883h4.508v.859h-4.508z"/><path d="m30.134 69.172h4.508v.859h-4.508z"/><path d="m137.9 43.106h1.073v-.429h2.576v.429h1.073v-3.006h-4.722zm1.073-2.147h2.576v.859h-2.576z" transform="translate(-107.766 30.574)"/><path d="m140.806 37.7-1.073.215c.215.215.215.429.429.644h-2.362v.859h5.582v-.859h-1.932a1.15 1.15 0 0 1 -.644-.859z" transform="translate(-107.881 27.822)"/><path d="m139.406 38.129-1.073-.429a9.893 9.893 0 0 1 -1.932 3.65c.215.215.644.429.859.859.215-.215.215-.429.429-.644v4.294h1.073v-5.368h-.215c.215-.859.644-1.718.859-2.362z" transform="translate(-109.486 27.822)"/><path d="m140.7 40.173h3.006a18.574 18.574 0 0 1 -1.5 2.147 2.964 2.964 0 0 1 -.859.644l.644 1.073a2.723 2.723 0 0 1 1.288-.215l3.864-.215.429.429a.21.21 0 0 0 .215.215l.859-.859c-.644-.644-1.288-1.5-2.147-2.362l-.859.429c.429.429.644.859 1.073 1.073l-2.791.215a26.81 26.81 0 0 0 1.718-2.576h3.65v-1.071h-7.729v1.073z" transform="translate(-104.555 29.428)"/><path d="m37.219 66.166h5.797v1.073h-5.797z"/><path d="m150.579 41.764v-.859h-3.006v-2.146h1.932v.429a.462.462 0 0 1 -.429.429h-.859a1.291 1.291 0 0 1 .215.859h.644c.859 0 1.288-.429 1.288-1.073v-1.503h-3.864v7.729h1.073v-.644c.215.215.429.215.429.429a4.684 4.684 0 0 0 1.073-.859 3.46 3.46 0 0 0 1.5.859 2.964 2.964 0 0 1 .644-.859 9.333 9.333 0 0 1 -1.5-.859 5.3 5.3 0 0 0 .86-1.932zm-3.006 0h.644l-.644.429zm0 2.791v-2.361a12.753 12.753 0 0 0 .859 1.718c-.215.214-.644.429-.859.643zm1.5-1.5-.644-1.288h1.288z" transform="translate(-97.903 28.051)"/><path d="m145.459 42.094a5.174 5.174 0 0 1 -.859 3.22c.429 0 .644.215.859.215a5.943 5.943 0 0 0 .644-2.791h.859v1.288a.462.462 0 0 1 -.429.429h-.644a1.291 1.291 0 0 1 .215.859h.429c.644 0 1.073-.429 1.073-1.288v-6.226h-2.147zm1.073-3.22h.859v1.073h-.859zm0 1.932h.859v1.073h-.859z" transform="translate(-100.082 27.937)"/><path d="m155.77 39.318v-.859h-3.435a.75.75 0 0 0 .215-.429l-.859-.429a6.209 6.209 0 0 1 -2.362 2.362 1.15 1.15 0 0 1 .859.644c.215-.215.644-.429.859-.644a3.769 3.769 0 0 0 1.073.859 11.625 11.625 0 0 1 -3.22.859 2.964 2.964 0 0 1 .644.859 18.133 18.133 0 0 0 3.65-1.073 12.96 12.96 0 0 0 3.435 1.073c.215-.429.215-.644.644-.859-1.073-.215-2.147-.429-3.006-.644.433-.646 1.074-1.075 1.503-1.719zm-4.079.215h2.791a3.851 3.851 0 0 1 -1.5 1.073 5.692 5.692 0 0 0 -1.291-1.074z" transform="translate(-95.15 27.707)"/><path d="m152.964 39.815-1.073-.215v.644h-2.147v.856h1.932a3.943 3.943 0 0 1 -2.576 1.72 2.964 2.964 0 0 1 .644.859c1.718-.429 2.791-1.288 3.006-2.362h1.932v.859a.569.569 0 0 1 -.644.644h-.859a1.291 1.291 0 0 1 .215.859h.859a1.139 1.139 0 0 0 1.288-1.288v-1.932h-2.791a.789.789 0 0 0 .214-.644z" transform="translate(-94.921 30.001)"/><path d="m156.006 41.262-.859.644v-3.006h-2.147v.859h1.073v2.361c0 .429 0 .644-.215.859l.644.859c.215-.215.215-.429.429-.429l1.5-1.5z" transform="translate(-90.448 29.198)"/><path d="m153.4 38.444a9.918 9.918 0 0 1 1.5 1.5l.644-.859-1.285-1.285z" transform="translate(-89.989 27.937)"/><path d="m157.535 39.632v-1.932h-1.073v2.147c0 2.576-.859 4.294-2.362 5.153.215.215.644.429.859.644a7.214 7.214 0 0 0 2.147-3.435 6.321 6.321 0 0 0 2.147 3.435 1.676 1.676 0 0 1 .859-.859q-1.933-1.285-2.577-5.153z" transform="translate(-89.186 27.822)"/><path d="m159.776 41.806-.644.429v-3.435h-1.932v.859h1.073v2.576c0 .429 0 .644-.429.859l.644.859.429-.429 1.5-1.288z" transform="translate(-85.631 29.083)"/><path d="m158.259 37.8-.859.429a9.341 9.341 0 0 1 1.288 1.5l.859-.644z" transform="translate(-85.402 27.937)"/><path d="m162.05 41.864h1.288v-.859h-1.288v-2.146h1.717v-.859h-4.938v.859h2.147v5.367h-.859v-3.864h-1.073v3.864h-.644v.859h5.367v-.859h-1.717z" transform="translate(-84.255 28.166)"/></g></svg>