<?xml version="1.0" standalone="no"?><!DOCTYPE svg PUBLIC "-//W3C//DTD SVG 1.1//EN" "http://www.w3.org/Graphics/SVG/1.1/DTD/svg11.dtd"><svg t="1544509567448" class="icon" style="" viewBox="0 0 1024 1024" version="1.1" xmlns="http://www.w3.org/2000/svg" p-id="2010" xmlns:xlink="http://www.w3.org/1999/xlink" width="128" height="128"><defs><style type="text/css"></style></defs><path d="M561.9 388l-99.3 99.3c-25.8 25.8-25.7 67.6 0 93.3 25.7 25.7 67.6 25.7 93.3 0l99.3-99.3c41.1 80.8 27.3 182.7-40.9 251-84.7 84.7-221.3 85.4-305.1 1.6s-83.1-220.4 1.6-305.1C379.2 360.6 481 347 561.9 388z" fill="RGB(65,140,255)" p-id="2011"></path><path d="M775.5 462.2c-15.8 4.2-25.1 20.4-20.9 36.1 27.9 104-1.2 216.4-79.5 294.7-118.8 119-310.3 119.9-427.6 2.6S131.2 486.8 250 368c78.1-78.1 190.5-107.3 294.3-79.5 15.8 4.2 32-5.1 36.1-20.9 4.2-15.8-5.2-31.9-20.9-36.1-124-33.2-258.1 1.7-351.2 94.8-141.8 141.8-143 370.4-2.5 510.9s369.3 139.3 511-2.5c93.2-93.2 128.1-227.5 94.7-351.6-4.1-15.8-20.3-25.1-36-20.9z" fill="#3377FF" p-id="2012"></path><path d="M511.1 438.8c-52-17.3-111.9-4.9-153.4 36.8-58.6 58.6-59.1 153.2-1.1 211.1 58 58 152.5 57.5 211.1-1.1 41.6-41.6 54-101.5 36.8-153.4L556 580.6c-25.7 25.7-67.6 25.7-93.3 0-25.7-25.7-25.8-67.5 0-93.3l48.4-48.5z" fill="#3377FF" p-id="2013"></path><path d="M929.5 269.8l-131.9-21.3c-1.4-0.3-2.5-1.3-2.8-2.8l-21.4-131.9c-0.1-0.6-0.4-1.3-0.9-1.8a3.32 3.32 0 0 0-4.7 0L632 247.9c-0.7 0.7-1.1 1.6-1 2.5l9.3 129.2-140 140c-6.4 6.4-6.4 16.9 0 23.3 6.4 6.4 16.9 6.4 23.3 0l140-140 129.3 9.2c0.9 0.1 1.8-0.3 2.5-1l135.9-135.9c0.5-0.5 0.8-1.1 0.9-1.8 0.3-1.7-0.9-3.4-2.7-3.6z" fill="#3377FF" p-id="2014"></path></svg>