<?xml version="1.0" standalone="no"?><!DOCTYPE svg PUBLIC "-//W3C//DTD SVG 1.1//EN" "http://www.w3.org/Graphics/SVG/1.1/DTD/svg11.dtd"><svg t="1544509561022" class="icon" style="" viewBox="0 0 1024 1024" version="1.1" xmlns="http://www.w3.org/2000/svg" p-id="1885" xmlns:xlink="http://www.w3.org/1999/xlink" width="128" height="128"><defs><style type="text/css"></style></defs><path d="M870.4 858.3L704 691.9l6.2-6.2L733 584.2C631.5 486 579.2 463.5 576.2 516.5c-4.6 79.5-29.4 86.4-55.3 79.5-25.9-6.8-73-188.2-116-188.2s-21 38-61.2 46.8-53.1-53.2-85.9-53.2c-32.8 0-37.6 13.7-46.3 69.4-5.8 37.1-33.6 56.3-83.4 57.7l23.3 112.7L250.3 772l171.3 65.5 165.6-29.1 75.6-75.4 166.5 166.5 41.1-41.2z" fill="RGB(65,140,255)" p-id="1886"></path><path d="M924.3 887.4l-65.8-65.8c-9.1-9.1-23.9-9.1-33 0l-32.9 32.9c-9.1 9.1-9.1 23.8 0 33l65.8 65.8c9.1 9.1 23.9 9.1 33 0l32.9-32.9c9.1-9.2 9-23.9 0-33zM450.2 133.8c-195.7 0-354.4 159.6-354.4 356.5s158.6 356.5 354.4 356.5 354.4-159.6 354.4-356.5-158.7-356.5-354.4-356.5z m0 654.8c-163.6 0-296.3-133.5-296.3-298.3S286.6 192 450.2 192s296.3 133.5 296.3 298.3-132.7 298.3-296.3 298.3z" fill="#3377FF" p-id="1887"></path></svg>