<?xml version="1.0" standalone="no"?><!DOCTYPE svg PUBLIC "-//W3C//DTD SVG 1.1//EN" "http://www.w3.org/Graphics/SVG/1.1/DTD/svg11.dtd"><svg t="1554971841977" class="icon" style="" viewBox="0 0 1024 1024" version="1.1" xmlns="http://www.w3.org/2000/svg" p-id="2599" xmlns:xlink="http://www.w3.org/1999/xlink" width="48" height="48"><defs><style type="text/css"></style></defs><path d="M348.94531250000006 472.21191406250006L348.048828125 469.4169921875 347.310546875 465.7783203125 346.80957031249994 463.80078125 346.80957031249994 461.26953125000006 346.80957031249994 458.2900390625 346.80957031249994 455.57421874999994 347.6796875 452.357421875 348.576171875 448.9296875 349.736328125 445.34375 351.31835937500006 441.3623046875 353.40136718749994 437.22265624999994 356.328125 433.056640625 356.328125 430.1298828125 356.59179687500006 427.4140625 357.0400390624999 423.6962890625 358.33203125 419.556640625 359.4658203125 415.07421875 360.388671875 412.9912109375 361.46972656250006 411.06640625 362.8408203125 408.93066406249994 364.31738281249994 407.3486328125 364.31738281249994 404.421875 364.31738281249994 401.1259765625 364.31738281249994 397.06542968750006 365.1875 391.765625 366.03125 385.6220703125 367.5869140625 378.265625 369.72265625 370.619140625 371.30468749999994 366.400390625 372.88671875 361.8388671875 374.60058593749994 357.541015625 376.6572265625 352.97949218749994 378.7666015625 347.9697265625 381.166015625 343.27636718750006 383.908203125 338.2666015625 387.3359375 333.2568359375 388.91796875 330.4091796875 390.5791015625 328.06249999999994 394.2705078125 322.7626953125 398.0146484375 317.4892578124999 402.33886718749994 312.03125000000006 406.92675781250006 306.75781250000006 411.91015625 301.537109375 417.1044921875 296.18457031250006 423.40625000000006 290.41015625 427.38769531250006 286.9033203125 432.26562500000006 283.10644531249994 437.1962890625 279.7578125 442.54882812500006 276.541015625 447.6904296875 273.693359375 453.46484375 271.3203125 459.6083984375 268.3935546875 465.69921875 266.38964843749994 471.81640625000006 264.3330078125 478.40820312500006 262.25 484.9736328125 260.66796875 491.90820312499994 259.3759765625 498.921875 258.24218750000006 505.83007812500006 257.31933593750006 512.7646484375 256.3701171875 520.1474609375 255.974609375 527.1347656250001 255.974609375 534.412109375 255.974609375 541.9267578125001 255.974609375 549.2041015625 256.8974609375 556.5078125 257.767578125 563.9169921875001 258.55859375 570.8515625000001 260.193359375 578.1552734375 261.74902343749994 584.9843749999999 263.5419921875 592.4990234375 265.5458984375 599.3544921875 267.9716796875 605.919921875 270.740234375 612.9335937499999 273.693359375 619.3408203125 276.91015624999994 625.5634765624999 280.46972656250006 631.654296875 284.3984375 636.927734375 288.03710937500006 639.353515625 290.1201171875 641.9111328125 291.623046875 646.8154296875 295.76269531249994 650.9287109375 299.77050781250006 655.015625 303.91015625 659.0234375 308.47167968750006 662.29296875 312.9013671875 666.2216796875 317.4892578124999 668.9375000000001 322.39355468749994 671.7060546874999 326.7705078125 674.6591796875 331.8330078125 677.0849609375 336.2626953125 681.1982421875 345.623046875 683.228515625 350.474609375 684.810546875 354.9833984375 686.3662109375 359.861328125 687.7900390625 364.4228515625 688.7919921875 368.3515625 690.0576171875 372.9921875 692.2988281250001 381.271484375 693.72265625 388.49609375000006 694.6455078125 395.48339843749994 695.462890625 401.1259765625 696.728515625 409.6953125 696.9921875 411.06640625 698.0205078125 412.6484375 700.7099609375001 417.078125 702.4501953124999 420.0576171875 704.0058593750001 423.1953125 705.9833984375001 426.5703125 707.7236328124999 430.578125 708.8310546875 434.71777343750006 710.0966796875001 439.2265625 711.0458984375 443.8408203125 711.44140625 446.134765625 711.8369140625 448.9296875 711.8369140625 451.35546875 711.44140625 453.78125 711.44140625 456.787109375 710.7294921874999 459.7138671875 709.4375 465.3564453125 707.9609374999999 468.23046875 706.8798828125 471.42089843750006 706.8798828125 472.21191406250006 707.380859375 473.2138671875 708.8310546875 475.560546875 715.291015625 485.0791015625 720.3798828124999 492.224609375 722.8056640625 496.99707031249994 726.0751953125 502.2177734375 728.94921875 507.939453125 732.2451171875 514.0830078125 735.5146484375 520.9384765625 739.2324218749999 528.716796875 741.3154296875 533.515625 743.2138671875 538.15625 744.8750000000001 543.0869140625 746.509765625 547.5166015625001 747.72265625 552.1572265624999 749.0146484375 556.5078125 750.5966796875 565.0244140624999 751.8623046875001 573.7255859375 752.732421875 581.451171875 752.732421875 585.6435546874999 752.732421875 589.0712890624999 752.732421875 592.314453125 752.15234375 596.1640625 751.3349609375001 602.80859375 750.1748046875 608.8203125000001 748.408203125 614.2255859375 747.72265625 616.4404296875 746.509765625 619.103515625 745.4814453125001 620.9492187500001 744.083984375 623.2431640625 742.87109375 624.6669921875 741.3154296875 626.5390625 739.91796875 628.015625 738.4677734375 629.3076171875 736.6748046875 630.0986328125 735.0927734375 630.8896484375 733.8007812499999 631.3115234375 732.6406249999999 631.3115234375 731.796875 631.3115234375 730.5048828124999 630.8896484375 728.0791015625 629.6767578125001 726.9716796874999 628.8857421875 725.8115234375 628.015625 724.51953125 626.8818359375001 723.2275390625 625.58984375 721.091796875 623.2431640625 718.560546875 619.89453125 716.5830078125 616.4404296875 714.60546875 613.671875 712.6806640625 610.455078125 709.9384765625001 604.7333984375 706.8798828125 598.80078125 706.5107421875 598.58984375 705.9833984375001 598.58984375 704.744140625 599.5390625 704.0058593750001 601.0947265625 702.8193359374999 603.0195312500001 700.7099609375001 608.8203125000001 697.572265625 617.0205078125 693.5380859375 626.8818359375001 690.505859375 631.8125 687.3154296875 636.9541015625 683.5185546875 642.728515625 679.5107421875 648.3974609374999 677.4541015625 650.955078125 674.94921875 653.75 669.2275390625001 659.3662109375 669.7285156250001 659.8935546875 670.4931640625 660.6845703125 673.3671875 662.3984375 685.28515625 668.1201171875 690.505859375 671.0205078125 695.462890625 673.89453125 700.3671875 677.4541015625 704.744140625 681.171875 706.8798828125 682.8330078125 708.4619140625 684.7578125 710.0966796875001 686.97265625 711.44140625 689.3984375 712.1796875 691.40234375 713.076171875 693.828125 713.4453125 695.9111328125 713.8935546875001 698.3369140625 713.4453125 699.9716796875 713.4453125 701.6064453125 713.076171875 703.3203125 712.1796875 704.90234375 711.8369140625 706.1152343749999 711.0458984375 707.6181640625 708.8310546875 710.5449218750001 706.8798828125 712.8916015625 705.3242187500001 714.6845703125 704.0058593750001 715.9765625 700.7099609375001 718.4023437499999 696.9921875 720.4853515625001 693.037109375 722.4628906250001 688.7919921875 724.3876953125 684.01953125 726.259765625 681.48828125 727.05078125 679.220703125 727.68359375 673.736328125 728.9755859375 668.0146484375 730.1884765625 662.29296875 731.4013671875 656.0966796875 732.4033203125 649.6630859375 732.693359375 643.0712890625 733.484375 636.55859375 733.484375 629.703125 733.484375 622.6630859375 733.484375 615.2802734375 733.0625 608.4248046875001 732.4033203125 601.0419921875 731.4013671875 593.7119140625 730.6103515625 585.986328125 729.5556640625 578.498046875 727.68359375 571.1943359375 726.259765625 563.9169921875001 724.1767578125001 556.5078125 721.5400390625 549.2041015625 719.3251953125 545.3544921875 718.0595703125 541.9267578125001 716.8203124999999 539.7646484375 715.9765625 537.6289062500001 715.5546874999999 534.833984375 715.5546874999999 531.5380859375 715.5546874999999 524.5507812499999 715.02734375 520.9912109375 714.6845703125 516.4033203125 714.1835937499999 513.5029296875 716.8203124999999 509.46875 719.3251953125 504.06347656249994 721.98828125 498.0517578125 725.2578125000001 494.4130859375 727.05078125 490.58984375 728.474609375 482.1787109375 731.90234375 477.6435546875 733.0625 472.81835937499994 734.3281249999999 466.173828125 735.6201171875 462.0341796875 735.962890625 457.630859375 736.33203125 453.0166015625 736.8330078125001 447.6904296875 737.0439453125 442.54882812500006 737.0439453125 437.1962890625 737.0439453125 425.83203125 737.0439453125 413.49218749999994 736.8330078125001 401.521484375 735.6201171875 395.45703125 734.7763671875 389.603515625 733.8798828125 383.908203125 733.0625 378.1865234375 731.90234375 372.88671875 730.1884765625 367.5869140625 728.9755859375 362.8408203125 727.05078125 358.33203125 725.2578125000001 354.11328125 723.25390625 350.4482421874999 721.0390625 346.80957031249994 718.4023437499999 345.5966796875 717.1103515625 343.9619140625001 715.5546874999999 342.72265625 714.1835937499999 341.615234375 712.6015625 340.61328125 711.0458984375 339.822265625 709.4638671875 338.662109375 706.1152343749999 338.2666015625 704.4013671875001 337.73925781250006 702.4501953124999 337.73925781250006 700.68359375 338.2666015625 698.6796875 338.2666015625 696.67578125 338.662109375 694.671875 338.662109375 693.4589843750001 338.662109375 690.6904296875001 338.87304687499994 688.5283203125 339.822265625 686.1025390625 340.61328125 683.6767578125 342.037109375 680.75 343.09179687499994 679.6162109375001 343.9619140625001 678.32421875 346.2294921875 675.5292968750001 348.048828125 674.10546875 349.736328125 673.103515625 351.31835937500006 671.837890625 353.8232421875 671.0205078125 355.80078125000006 669.833984375 358.33203125 668.515625 361.1533203125 667.671875 364.0009765625 666.828125 367.296875 666.1162109374999 370.43457031250006 665.6679687499999 374.15234375 665.193359375 378.1865234375 664.8769531249999 379.26757812500006 664.5341796875 379.478515625 664.5341796875 379.9794921875 664.0859374999999 379.9794921875 663.611328125 379.26757812500006 662.609375 377.10546874999994 661.5810546874999 371.75292968749994 656.966796875 368.1669921875 654.0927734375 364.0009765625 650.4541015625 359.8349609375 646.3935546875001 355.4580078125 641.1728515625 350.4482421874999 635.3193359375 348.576171875 632.1552734374999 346.09765625 628.8857421875 343.9619140625001 625.0888671875 342.037109375 620.9492187500001 339.45312499999994 617.0205078125 337.73925781250006 612.51171875 335.7353515625 608.029296875 333.7314453125 603.0195312500001 332.2548828125 598.2470703125 330.857421875 592.314453125 330.435546875 592.103515625 330.0400390625 592.103515625 329.802734375 591.6552734375 329.3017578125 591.6552734375 328.45800781249994 592.103515625 328.0361328125 592.314453125 327.4296875 593.31640625 327.2451171875 594.529296875 326.79687500000006 595.583984375 326.0322265625 597.376953125 323.580078125 601.75390625 322.31445312499994 604.390625 320.310546875 606.658203125 318.17480468749994 609.4267578125 315.80175781249994 612.51171875 313.296875 615.25390625 310.3701171875 617.890625 307.6806640625 620.369140625 304.6748046875 622.3203125 301.4052734375 624.376953125 298.2412109375 625.58984375 294.5234375 626.5390625 290.8583984375 626.8818359375001 290.515625 626.8818359375001 289.98828125 626.8818359375001 289.17089843749994 626.5390625 288.51171875 625.0888671875 287.4306640625 624.376953125 286.033203125 620.9492187500001 285.1630859375 619.103515625 284.21386718750006 616.4404296875 283.44921875 613.671875 283.02734374999994 610.9560546875 281.8671875 604.7333984375 281.44531250000006 601.0947265625 281.44531250000006 597.376953125 281.44531250000006 589.0712890624999 281.8671875 580.1591796875 282.60546875 575.5712890625 283.44921875 570.8779296875 284.21386718750006 565.7890624999999 285.5849609375 561.0957031249999 287.140625 555.6640624999999 288.72265625 550.3642578125 290.8583984375 544.9326171875 292.88867187500006 539.7119140624999 295.6572265625 534.4384765624999 298.2412109375 528.716796875 301.4052734375 523.3642578125 305.0966796875 517.58984375 308.8671875 512.369140625 312.7958984375 506.5947265625 316.091796875 502.560546875 320.310546875 497.919921875 324.740234375 493.279296875 326.79687500000006 491.064453125 329.3017578125 488.58593750000006 332.94042968749994 485.42187500000006 336.658203125 482.20507812499994 342.72265625 476.77343749999994 347.310546875 473.4248046875Z" fill="#ffffff" p-id="2600"></path><path d="M512 90.125C278.9931640625 90.125 90.125 279.01953125 90.125 512c0 233.0068359375 188.86816406250003 421.875 421.875 421.875s421.875-188.86816406250003 421.875-421.875C933.875 279.01953125 745.0068359375 90.125 512 90.125M512 909.458984375C292.4931640625 909.458984375 114.54101562500006 731.5068359375 114.54101562500006 512 114.54101562500006 292.4931640625 292.4931640625 114.5673828125 512 114.5673828125S909.458984375 292.4931640625 909.458984375 512C909.458984375 731.5068359375 731.5068359375 909.458984375 512 909.458984375" fill="#ffffff" p-id="2601"></path></svg>