<?xml version="1.0" standalone="no"?><!DOCTYPE svg PUBLIC "-//W3C//DTD SVG 1.1//EN" "http://www.w3.org/Graphics/SVG/1.1/DTD/svg11.dtd"><svg t="1544509545386" class="icon" style="" viewBox="0 0 1024 1024" version="1.1" xmlns="http://www.w3.org/2000/svg" p-id="1759" xmlns:xlink="http://www.w3.org/1999/xlink" width="128" height="128"><defs><style type="text/css"></style></defs><path d="M877.5 559.1H134.8v141.5h335.8v192.8h70.7V700.6h336.2z" fill="RGB(65,140,255)" p-id="1760"></path><path d="M681.3 875H340.8c-12.3 0-22.3 10-22.3 22.3v26.2c0 12.3 10 22.3 22.3 22.3h340.5c12.3 0 22.3-10 22.3-22.3v-26.2c0-12.3-10-22.3-22.3-22.3zM847.2 170.1H176.9c-36.3 0-65.7 29.4-65.7 65.7v434.5c0 36.3 29.4 65.7 65.7 65.7h670.3c36.3 0 65.7-29.4 65.7-65.7V235.8c0-36.3-29.4-65.7-65.7-65.7z m6.8 500.2c0 3.8-3.1 6.8-6.8 6.8H176.9c-3.8 0-6.8-3.1-6.8-6.8v-75.9H854v75.9z m0-134.8H170.1V235.8c0-3.8 3.1-6.8 6.8-6.8h670.3c3.8 0 6.8 3.1 6.8 6.8v299.7z" fill="#3377FF" p-id="1761"></path><path d="M687.4 288.9L549.6 403.6l-91.7-84.2c-10.7-9.9-27-10.4-38.4-1.3L293.2 419.7c-12.7 10.2-14.7 28.7-4.5 41.4s28.7 14.7 41.4 4.5l106.6-85.7 92 84.5c10.9 9.9 27.5 10.3 38.8 0.9l157.6-131.1c12.5-10.4 14.2-29 3.8-41.5s-29-14.2-41.5-3.8z" fill="#3377FF" p-id="1762"></path></svg>