<svg viewBox="0 0 88.516 88.098" xmlns="http://www.w3.org/2000/svg"><g fill="#fff"><path d="m401.85 35.5a41.507 41.507 0 0 0 -5.8-12.023 44.182 44.182 0 0 0 -31.985-19.322 40.723 40.723 0 0 0 -16.1 1.288 44.566 44.566 0 0 0 -27.265 21.257 38.944 38.944 0 0 0 -5.152 15.243 39.5 39.5 0 0 0 .215 13.311 47.266 47.266 0 0 0 2.576 9.446 45.831 45.831 0 0 0 4.938 9.017 53.194 53.194 0 0 0 15.023 13.523c.215 0 .429.215.644 0 .644-.429.429-1.288-.215-1.718-.859-.429-1.5-.859-2.362-1.288a42.81 42.81 0 0 1 -19.751-36.927 39.665 39.665 0 0 1 3.864-16.746 43.006 43.006 0 0 1 11.593-15.243 42.538 42.538 0 0 1 19.111-9.018 43.169 43.169 0 0 1 46.588 22.542 40.4 40.4 0 0 1 4.294 15.028 40.225 40.225 0 0 1 -3.65 21.9 39.428 39.428 0 0 1 -7.944 11.808 32.7 32.7 0 0 1 -7.944 6.441 34.732 34.732 0 0 1 -3.864 2.147c-.644.429-.215.644-.215 1.073.215.429.429.429.859.215 1.717-1.073 3.435-1.932 4.938-3.006a45.021 45.021 0 0 0 12.237-12.448 43.653 43.653 0 0 0 6.87-21.04 38.018 38.018 0 0 0 -1.503-15.46z" transform="translate(-315.086 -3.865)"/><path d="m380.464 62.142a33.332 33.332 0 1 0 -59.684-25.548c-2.791 15.672 6.011 28.983 15.458 34.136.215-.644.644-1.073-.215-1.718a54.2 54.2 0 0 1 -5.367-4.508 31.565 31.565 0 0 1 -8.8-19.966 30.5 30.5 0 0 1 4.509-18.249 30.281 30.281 0 0 1 12.235-11.589 31.01 31.01 0 0 1 24.689-2.362 30.375 30.375 0 0 1 10.949 6.011 31.748 31.748 0 0 1 11.379 21.251 33.879 33.879 0 0 1 -1.073 12.237 31.73 31.73 0 0 1 -13.311 17.819c-1.073.644-1.073.644-.429 1.932a57.375 57.375 0 0 0 9.66-9.446z" transform="translate(-309.157 2.125)"/><path d="m341.039 15.369a8.666 8.666 0 0 0 -3.864 5.582 10.19 10.19 0 0 0 1.5 8.588 7.314 7.314 0 0 0 10.949 1.288c1.932-1.718 2.791-4.079 2.791-7.085a10.013 10.013 0 0 0 -1.073-4.723 7.053 7.053 0 0 0 -10.303-3.65zm7.514 9.017a12.6 12.6 0 0 1 -.859 4.938c-.859 1.932-1.717 2.576-3.22 2.576a3.365 3.365 0 0 1 -3.006-2.791c-.429-1.932-.644-3.65-1.073-5.582.429-1.932.429-3.864 1.073-5.582a3.454 3.454 0 0 1 2.791-2.576c1.717-.215 2.791.644 3.435 2.576a16.163 16.163 0 0 1 .859 6.441z" transform="translate(-290.128 8.107)"/><path d="m336.848 37.631a6.455 6.455 0 0 0 2.362 3.006c1.717 1.073 4.079 0 4.938-1.932a14.664 14.664 0 0 0 1.5-6.87 13.531 13.531 0 0 0 -1.5-6.441 3.634 3.634 0 0 0 -4.723-1.932 5.036 5.036 0 0 0 -2.362 2.362 16.035 16.035 0 0 0 -.215 11.807zm2.576-10.731a5.717 5.717 0 0 1 .644-2.576.9.9 0 0 1 1.717 0 4.327 4.327 0 0 1 .644 2.362v5.367h.215c-.215 2.362-.215 4.723-.429 7.085 0 .215 0 .429-.215.429-.429.429-.859.859-1.073.859-.429 0-.859-.644-1.073-1.073a21.149 21.149 0 0 1 -.429-3.65c-.001-3.01-.001-5.803-.001-8.803z" transform="translate(-291.304 18.263)"/><path d="m330.764 34.193a12.19 12.19 0 0 0 1.5 4.723c.644 1.073 1.5 2.362 3.006 2.362 1.932 0 3.006-1.073 3.864-2.576a12.74 12.74 0 0 0 1.288-7.085 14.958 14.958 0 0 0 -1.288-5.8c-1.073-2.147-3.006-3.22-4.938-2.362a5.008 5.008 0 0 0 -2.791 3.435 16.649 16.649 0 0 0 -.641 7.303zm3.435-8.158a2.438 2.438 0 0 1 .644-1.718.943.943 0 0 1 1.718.215 11.08 11.08 0 0 1 .429 2.362v4.938 6.226a3.981 3.981 0 0 1 -.429 1.5c-.215.215-.644.644-.859.644a1.181 1.181 0 0 1 -1.073-.644 2.3 2.3 0 0 1 -.429-1.288c0-3.862 0-8.156 0-12.235z" transform="translate(-297.242 18.267)"/><path d="m334.535 31.032c-1.717-.859-2.147-2.362-2.576-4.079a1.628 1.628 0 0 0 -.429-.859h-.215c0 .215-.215.429-.215.644v5.367a.749.749 0 0 1 .429.215c.429-.859 1.073-.644 1.718-.215a7.248 7.248 0 0 0 4.294.429c3.22-.644 4.723-4.723 3.435-7.729a6.258 6.258 0 0 0 -3.22-3.006c-1.288-.644-2.362-1.5-3.435-2.147-.859-.644-.859-2.147-.429-3.22a2.2 2.2 0 0 1 2.576-1.073 4.051 4.051 0 0 1 2.791 2.147c.429.644.644 1.5 1.073 2.147 0 .215.215.215.429.429 0-.215.215-.215.215-.429v-4.508c0-.215-.215-.429-.215-.644a.75.75 0 0 0 -.429.215c-.215.644-.644.429-1.073.429a5.052 5.052 0 0 0 -1.717-.429 4.576 4.576 0 0 0 -5.152 1.718c-1.718 3.006-1.288 6.011 1.717 7.944 1.288.859 2.791 1.718 4.079 2.576a2.756 2.756 0 0 1 1.073 3.006 3.3 3.3 0 0 1 -4.724 1.072z" transform="translate(-296.72 8.331)"/><path d="m329.1 38.658c-.859.644-1.932 1.073-2.791 1.718l-.644.644c.215 0 .644.215.859.215a28.671 28.671 0 0 0 3.864-1.5c3.22-1.718 4.723-4.508 4.938-8.158a9.763 9.763 0 0 0 -1.073-6.011 4.37 4.37 0 0 0 -4.079-2.362 4.276 4.276 0 0 0 -3.864 2.362 6.2 6.2 0 0 0 -.429 5.8c.644 1.932 1.717 3.006 3.65 3.006.644 0 1.073-.215 1.718-.215v.429a6.373 6.373 0 0 1 -2.149 4.072zm2.147-5.8c-.429 0-1.073 0-1.288-.429a2.438 2.438 0 0 1 -.644-1.718 12.283 12.283 0 0 1 -.215-3.006c0-.644.215-1.718.215-2.791a1.237 1.237 0 0 1 1.288-1.288c.859 0 1.073.429 1.288 1.073a16.572 16.572 0 0 1 .429 3.22 23.331 23.331 0 0 1 -.215 3.864c-.425.649-.64 1.078-.855 1.078z" transform="translate(-303.311 18.31)"/><path d="m337.068 40.5h-7.3a1.58 1.58 0 0 0 -1.717 1.718v1.718c0 1.5.215 2.147 2.147 2.362h4.938c.429 0 1.073 0 1.073.859 0 .644-.429.644-1.073.644h-3.436c-.429 0-.644-.215-1.073-.429a4.292 4.292 0 0 0 -2.791-.429.75.75 0 0 0 -.215.429 2.013 2.013 0 0 0 1.932 2.576h6.87c.859 0 1.5-.429 1.5-1.073a10.42 10.42 0 0 0 0-3.65c0-.429-.644-.644-1.073-.859s-.859 0-1.288 0h-4.723a.786.786 0 0 1 -.859-.859c0-.644.429-.644.859-.644h3.65c.429 0 .644.215.859.644a4.463 4.463 0 0 0 2.362.215v-.215c1.505-1.719.646-3.007-.642-3.007z" transform="translate(-300.756 38.151)"/><path d="m342.2 42.432h3.435a1.628 1.628 0 0 1 .859.429 3.146 3.146 0 0 0 2.362.429l.215-.215a1.746 1.746 0 0 0 -1.717-2.576h-7.514c-1.073 0-1.5.429-1.717 1.718v2.147a1.419 1.419 0 0 0 1.288 1.5 2.723 2.723 0 0 1 1.288.215h4.723c.644 0 1.073.215 1.073.859s-.429.644-1.073.644h-3.222c-.644 0-1.073 0-1.5-.644 0-.215-.215-.215-.429-.215h-1.717a.462.462 0 0 0 -.429.429c-.215 1.5.429 2.362 2.147 2.576h6.87a1.43 1.43 0 0 0 1.5-1.073 10.451 10.451 0 0 0 .215-2.576c0-1.5-.429-1.932-1.932-1.932h-4.938c-.644 0-1.073-.215-1.073-.859.428-.856.857-.856 1.286-.856z" transform="translate(-288.713 38.151)"/><path d="m342.132 40.5h-7.3c-1.288 0-1.932.429-1.932 1.718v5.582a1.58 1.58 0 0 0 1.717 1.718h7.083c1.073 0 1.717-.429 1.717-1.5a8.13 8.13 0 0 0 0-3.22.968.968 0 0 0 -.644-.644h-4.294a.75.75 0 0 0 -.429.215c-.429 1.073 0 1.5 1.073 1.5h1.077c.429 0 .859.215.644.644a.968.968 0 0 1 -.644.644h-3.864c-.644 0-1.073-.215-.859-1.073v-3.22c0-.644.215-.859 1.073-.859h3.435a1.115 1.115 0 0 1 .859.429 2.763 2.763 0 0 0 2.576.215.75.75 0 0 0 .215-.429c.644-.647-.001-1.72-1.503-1.72z" transform="translate(-294.656 38.151)"/><path d="m334.1 15.029c.215 0 .215-.215.429-.215-.215-.215-.215-.215-.429-.215h-6.655c-.215 0-.429.215-.644.215l.429.429c1.5.644 1.717.644 1.717 2.362v12.238c0 1.073-.429 1.288-1.288 1.5-.215 0-.429.215-.644.215.215 0 .429.215.644.215h6.441c.215 0 .429-.215.644-.215-.215-.215-.429-.429-.644-.429-1.073-.215-1.288-.429-1.288-1.5v-12.667c-.212-1.503-.001-1.503 1.288-1.933z" transform="translate(-301.652 8.447)"/><path d="m346.767 23.257c-1.5.859-3.22 1.5-4.723 2.362-.215 0-.215.215-.644.644h.859c1.932-.644 1.932 0 2.147 1.5v9.237c0 .644-.215 1.288-.215 1.932 0 .859-.644 1.288-1.5 1.5-.429 0-.644.215-1.073.215v.215c.215 0 .215.215.429.215h7.3a.749.749 0 0 0 .429-.215c-.215 0-.215-.215-.429-.215-1.288-.215-1.717-.644-1.717-1.932v-14.385c-.004-1.288-.219-1.288-.863-1.073z" transform="translate(-284.907 18.253)"/><path d="m358.441 24.344c0-.644-.429-.644-.859-.644h-4.723c-.215 0-.429.215-.644.429.215.215.429.429.644.429h2.576v.215c-1.073.215-1.932.429-3.006.644-.215 0-.429.429-.429.644a.462.462 0 0 0 .429.429 4.727 4.727 0 0 0 1.717.215c.215 0 .644.215.859.215v.215a7.3 7.3 0 0 0 -2.147.215c-.215 0-.429.215-.644.429.215.215.429.429.644.429h4.723a.462.462 0 0 0 .429-.429c.215-.859-.215-1.073-1.288-1.288-.859-.215-1.932-.215-2.791-.429v-.215l3.22-.644c1.29-.003 1.504-.43 1.29-.859z" transform="translate(-272.75 18.884)"/><path d="m322.426 24.129h-.426c-.215 0-.429.215-.644 0-.644-.215-1.288-.215-1.932-.429-.644.215-1.073.215-1.717.429a2.049 2.049 0 0 0 -.644 3.435 3.593 3.593 0 0 0 3.22.859c1.717-.215 3.006-1.288 2.147-3.22a.75.75 0 0 1 .215-.429 1.661 1.661 0 0 1 -.219-.645zm-1.932 3.006a8.659 8.659 0 0 1 -2.362 0c-.644 0-.859-.429-.859-1.073a.982.982 0 0 1 .859-1.073c.429 0 1.073-.215 1.5-.215s.644 0 .644.644c0 .859.644.215 1.073.215.218.858-.212 1.502-.856 1.502z" transform="translate(-313.594 18.884)"/><path d="m344.725 13.1c-.429.644 0 .859.644 1.073a8.971 8.971 0 0 1 .859-2.147c.215-.215.215-.644.429-.859.859-.644 1.073-2.147.215-2.576a14.427 14.427 0 0 0 -2.572-1.291c-.644 1.5-1.288 3.006-1.932 4.294-.215.429-.859.859-.215 1.288.859.429.644-.429.859-.859s.429-1.073 1.073-.644c.859.429 1.073.644.644 1.288.211 0 .211.215-.004.433zm-.215-3.006c-.644-.644.215-1.073.215-1.5 1.5.859 1.717 1.073 1.288 1.718 0 .208-.858.208-1.502-.221z" transform="translate(-284.368 .075)"/><path d="m357.5 20.529c0-.215-.429-.429-.644-.429-.859.215-1.932.429-2.791.644-.644.215-1.288.215-1.717.429-.215 0-.429.429-.644.644.215 0 .429.215.859.215a1.291 1.291 0 0 0 .859-.215c.429-.215.644 0 .859.429.215.859 0 1.073-.859 1.288-.215 0-.429.215-.644.215-.644.215-.644.644-.429 1.288.859-.429 1.717-.644 2.791-1.073.644.429 1.288.215 2.147-.215a1.346 1.346 0 0 0 .429-1.718c.21-.431-.005-.858-.216-1.502zm-1.5 2.791c-.644 0-.859-.644-.859-1.288s.644-.644 1.073-.644a2.143 2.143 0 0 1 .859 1.073c-.221.645-.435.859-1.079.859z" transform="translate(-273.094 14.755)"/><path d="m347 15.236a3.739 3.739 0 0 0 2.576 1.718 5.216 5.216 0 0 0 3.006-1.932 1.931 1.931 0 0 0 -.215-3.006l-.644-.644c-.429-.429-.644-.429-1.073 0-1.073 1.073-2.147 2.147-3.435 3.22 0 .215-.215.43-.215.644zm1.932-.859 1.5-1.5a1.628 1.628 0 0 1 .859-.429c.215.429.644.859.859 1.288 0 .859-1.5 2.147-2.576 2.147-.215-.215-.644-.429-.859-.859-.215-.002.002-.432.217-.646z" transform="translate(-278.484 4.375)"/><path d="m323.155 23.236a1.632 1.632 0 0 0 -1.073-1.932c-1.288-.429-2.576-.644-4.079-1.073-.429-.215-.644.215-.644.644a.462.462 0 0 0 .429.429 22.462 22.462 0 0 0 3.65.859c.429.215.644.429.429.859-.215.215-.429.644-.859.644a1.935 1.935 0 0 1 -1.073-.215 10.877 10.877 0 0 0 -2.791-.429c-.215 0-.429.215-.644.429a2.162 2.162 0 0 0 .215.644 32 32 0 0 0 3.864.859c1.721 0 2.362-.644 2.576-1.718z" transform="translate(-313.464 14.839)"/><path d="m348.068 8.9c-1.073 1.5-2.147 3.006-3.22 4.294-.215.215 0 .644.215.859.644.429 1.288 1.073 1.932 1.5.215.215.429 0 .644 0a1.291 1.291 0 0 0 -.215-.859 2.143 2.143 0 0 0 -1.073-.859c-.429-.215-.644-.644-.215-1.073l.644-.644a4.491 4.491 0 0 0 1.288.859c.215.215.429.429.859 0s0-.644-.429-.859-.859-.644-1.288-.859c.644-1.073.644-1.073 1.5-.429.215.215.644.429.859.644a.789.789 0 0 0 .644-.215c.215-.215.215-.644 0-.644a9.359 9.359 0 0 0 -2.145-1.715z" transform="translate(-281.055 1.91)"/><path d="m338.362 11.219a.861.861 0 0 1 -1.288-.429.784.784 0 0 0 -1.074-.43v.215c0 .215 0 .215.215.429a1.672 1.672 0 0 0 1.932 1.288 2.035 2.035 0 0 0 1.932-1.718 1.632 1.632 0 0 0 -1.073-1.932c-.215-.215-.644-.215-.859-.429s-.644-.429-.644-.859c0-.215.429-.644.429-.644a1.64 1.64 0 0 1 1.073.429c.215.429.644.644 1.073.215a1.881 1.881 0 0 0 -1.5-1.932 1.568 1.568 0 0 0 -1.932 1.288 1.6 1.6 0 0 0 1.073 2.147c.429.215.859.215 1.073.644-.001.859-.001 1.499-.43 1.718z" transform="translate(-291.1 -2.127)"/><path d="m333.873 6.988c.429-.429.859-.215 1.5.215.215.215.429.215.859.215v-.645a2.255 2.255 0 0 0 -1.932-1.073 1.822 1.822 0 0 0 -1.5 1.718c0 .859.215 1.718 1.073 1.932.644.215 1.073.215 1.717.429.215 0 .429.429.429.644a1.151 1.151 0 0 1 -.644.859 1.109 1.109 0 0 1 -1.5-.644c-.859.215-1.073.429-.429 1.073a1.63 1.63 0 0 0 1.932.644 2.047 2.047 0 0 0 1.718-1.718c0-1.073-.215-1.5-1.288-1.718a2.723 2.723 0 0 0 -1.288-.215c-.215 0-.429-.215-.644-.429q-.325-.965-.003-1.287z" transform="translate(-294.77 -1.76)"/><path d="m340.388 9.535c.215-.859.429-1.718.644-2.791 0-.215-.215-.429-.215-.644a2.163 2.163 0 0 0 -.644.215c-.429 1.288-.644 2.791-1.073 3.65 0 1.5.429 1.932 1.5 2.362a1.4 1.4 0 0 0 1.932-1.073 28.608 28.608 0 0 0 1.073-4.079.75.75 0 0 0 -.215-.429c-.215 0-.429.215-.644.215-.215.215-.215.644-.429 1.073l-.644 2.576c-.215.215-.644.644-.859.644-.644 0-.859-.429-.644-.859.003-.216.218-.645.218-.86z" transform="translate(-287.545 -1.302)"/><path d="m330.115 12.8c.215 0 .429-.215.644-.215a.665.665 0 0 0 .215-.429c0-.429.215-.859.644-.859s1.073-.429 1.288.215c.215.429.644.429 1.073.215v-.215c-1.073-1.5-1.932-3.22-3.006-4.723 0-.215-.429-.215-.644 0-.215 0-.429.429-.429.644a41.373 41.373 0 0 0 .215 5.153c-.215-.218 0 .214 0 .214zm.859-4.723c.215.429.429.644.644 1.073v.644c0 .215-.429.215-.644.215s-.215-.429-.215-.429v-1.291a.21.21 0 0 1 .214-.215z" transform="translate(-298.096 -.7)"/><path d="m323.382 18.788c.215 0 .429-.215.644-.429-.215-.215-.429-.429-.644-.429a38.327 38.327 0 0 0 -4.938-.429c-.215 0-.429.215-.644.429v.859c1.5 1.073 3.006 2.362 4.509 3.435.429-.644.429-.859 0-1.288-.644-.429-.429-.859-.215-1.288.429-.648.644-.86 1.288-.86zm-2.362 1.073c-.644-.429-1.073-.859-1.5-1.073a.21.21 0 0 1 .215-.215c.644 0 1.073.215 1.932.215a2.86 2.86 0 0 0 -.647 1.074z" transform="translate(-311.974 11.773)"/><path d="m355.455 15.69c-.215-.429-.429-.429-.859-.215-1.5.859-2.791 1.5-4.079 2.362-.429.215-.644.644 0 1.073a10.464 10.464 0 0 1 1.5-.644c.644-.429 1.073-.429 1.288.429.215.429.429.644.644 1.073.644-.215 1.073-.215.644-1.073l-.644-1.288c1.073-.644 1.073-.644 1.717.429 0 .215.215.429.215.644.215.429.429.644.644.215a1.291 1.291 0 0 0 .215-.859 8.038 8.038 0 0 1 -1.285-2.146z" transform="translate(-274.917 9.289)"/><path d="m324.777 10.132c-.429.429.215.644.429.859 1.288 1.073 2.791 1.718 3.65 3.22.215.644.644.215.859 0l-1.288-3.864a3.654 3.654 0 0 1 -.215-1.5c0-.215-.215-.429-.429-.644-.215.215-.429.429-.429.644v.644c0 .429.215.859.215 1.288a4.675 4.675 0 0 1 -1.718-1.079 1.182 1.182 0 0 0 -1.074.432z" transform="translate(-304.137 1.107)"/><path d="m324.92 11.388c.644-.429.429-.859-.215-1.288-.644.644-1.5 1.288-2.147 1.932q-.966.644 0 1.288c.215 0 .215 0 .215-.215.644-.644 1.073-.429 1.5.215a19.353 19.353 0 0 0 1.932 2.147c.215.215.429.644 1.073.215.429-.429 0-.644-.215-1.073a23.513 23.513 0 0 0 -2.147-2.362.653.653 0 0 1 .004-.859z" transform="translate(-307.071 3.286)"/><path d="m319.529 14.9c-.215.215-.429.215-.429.429s0 .429.215.429c1.288.859 2.791 1.932 4.079 2.791a1.291 1.291 0 0 0 .859-.215l1.288-1.932v-.644a1.291 1.291 0 0 0 -.859.215c-.215.215-.429.644-.644.859-.215.644-.644.644-1.073.215a19.6 19.6 0 0 0 -2.791-1.718c-.215-.214-.43-.429-.645-.429z" transform="translate(-310.483 8.791)"/><path d="m356.038 18.143c-1.5.644-3.006 1.073-4.509 1.718-.215 0-.215.429-.429.644.215.215.644.429.644.215a41.763 41.763 0 0 0 4.723-1.72c.215 0 .215-.215.429-.215.004-.642-.214-.857-.858-.642z" transform="translate(-273.782 12.418)"/><path d="m320.8 13.18c1.288 1.073 2.791 2.147 4.079 3.435.215.215.429 0 .859 0a1.291 1.291 0 0 0 -.215-.859c-1.073-1.073-2.362-1.932-3.435-3.006-.644-.429-1.073-.429-1.288.43z" transform="translate(-308.533 6.002)"/><path d="m337.335 41.244-3.435-3.865v4.938l3.22 4.294 7.729-8.373v-4.938h-.215z" transform="translate(-293.509 29.894)"/></g></svg>