<svg viewBox="0 0 64.084 91.672" xmlns="http://www.w3.org/2000/svg"><g fill="#fff"><path d="m73.724 23.325c-.215-3.006-.644-5.8-1.073-8.588-.215-1.718-.644-3.22-.859-4.938-.215.215-.429.215-.429.429l-.215.215a55 55 0 0 1 -9.661 14.814 42.826 42.826 0 0 1 -14.814 11.379.462.462 0 0 0 -.429.429c-.215 1.288-.644 2.362-.859 3.65-.215.859-.215 1.932-.429 2.791-.429 1.718-.644 3.435-1.073 4.938-.215 1.718-.644 3.435-.859 5.153-.215.644-.215 1.5-.429 2.147-.429 1.718-.644 3.65-1.073 5.367-.215 1.073-.215 1.932-.429 3.006a43.971 43.971 0 0 0 -1.073 5.153 50.144 50.144 0 0 0 -.859 5.582c-.215.859-.215 1.718-.429 2.791-.215.859-.215 1.5-.429 2.362h13.097c.644 0 1.288-.215 2.362-.215a4.492 4.492 0 0 1 -.862-1.29c-.644-.859-1.5-1.718-1.288-3.006.215-2.362.215-4.723.429-6.87a2.331 2.331 0 0 1 .859-1.932c2.791-1.932 5.367-3.864 7.944-5.8a30.6 30.6 0 0 0 7.944-9.446 32.654 32.654 0 0 0 4.079-10.734 29.482 29.482 0 0 0 1.071-6.012c0-4.075 0-7.725-.214-11.375zm-20.61 28.983v-6.008c0-1.073.859-1.5 1.5-1.932a41.824 41.824 0 0 0 7.944-5.8 4.692 4.692 0 0 1 1.073-.644c-1.5 6.441-4.506 11.376-10.517 14.384z" transform="translate(-9.855 11.24)"/><path d="m47.587 68.271c.215-.859.215-1.5.429-2.362.429-1.718.644-3.435 1.073-4.938.215-1.718.644-3.435.859-5.367.215-.859.215-1.5.429-2.362a43.971 43.971 0 0 0 1.073-5.153 2.912 2.912 0 0 1 1.5-2.362 65.676 65.676 0 0 0 11.379-9.017 50.906 50.906 0 0 0 6.87-8.373 54.276 54.276 0 0 0 3.868-7.937 26.13 26.13 0 0 0 1.5-8.158v-3.442a18.79 18.79 0 0 0 -.429-3.435 22.842 22.842 0 0 1 -1.93-5.365 15.577 15.577 0 0 1 -1.073 1.932c-1.718 3.22-3.435 6.655-5.367 9.876a70.972 70.972 0 0 1 -8.158 11.164 55.277 55.277 0 0 1 -9.661 9.017c-2.147 1.5-4.294 3.006-6.441 4.294-2.362 1.288-4.938 2.362-7.514 3.65v.859l.429 10.734v1.288c0 1.073.429 1.288 1.288.859 1.289-.645 2.789-1.073 4.294-1.718-3.435 13.311-6.87 26.621-10.305 39.717h11.593a51.123 51.123 0 0 0 1.073-5.582 62.924 62.924 0 0 0 1.073-6.226 62.924 62.924 0 0 0 1.073-6.226c.431-1.932.646-3.649 1.075-5.367z" transform="translate(-17.424)"/><path d="m40.614 54.424a59.225 59.225 0 0 0 1.718-5.8c.215-.644-.215-.859-.644-1.073a20.386 20.386 0 0 1 -3.65-2.147c-1.5-1.288-2.791-2.791-2.362-4.938a7.243 7.243 0 0 1 1.932-4.294c1.288-1.5 4.723-2.791 4.723-2.791l-.643-14.381a8.443 8.443 0 0 0 -1.288.429c-4.508 2.362-8.8 5.153-12.023 9.446a16 16 0 0 0 -3.22 8.158 24.216 24.216 0 0 0 1.073 10.306 19.231 19.231 0 0 0 3.65 6.441 18.835 18.835 0 0 0 6.441 4.294 10.628 10.628 0 0 0 2.791.859c.644-1.718 1.073-3.221 1.502-4.509z" transform="translate(-25.05 21.791)"/></g></svg>